<svg width="24" height="24" viewBox="0 0 24 24" fill="none" xmlns="http://www.w3.org/2000/svg">
<path fill-rule="evenodd" clip-rule="evenodd" d="M7 19L6.55279 19.8944C6.214 19.725 6 19.3788 6 19C6 17.3594 6.4053 15.4253 7.32657 13.8663C8.26149 12.2841 9.79629 11 12 11C14.2037 11 15.7385 12.2841 16.6734 13.8663C17.5947 15.4253 18 17.3594 18 19C18 19.3788 17.786 19.725 17.4472 19.8944L17 19C17.4472 19.8944 17.4475 19.8943 17.4472 19.8944L17.4447 19.8957L17.4415 19.8973L17.4329 19.9015L17.4067 19.9141C17.3854 19.9242 17.3564 19.9378 17.3198 19.9543C17.2467 19.9874 17.1434 20.0322 17.012 20.0847C16.7494 20.1898 16.3733 20.3262 15.8997 20.4615C14.9537 20.7318 13.6102 21 12 21C10.3898 21 9.0463 20.7318 8.10028 20.4615C7.62669 20.3262 7.25062 20.1898 6.98798 20.0847C6.85659 20.0322 6.75334 19.9874 6.68021 19.9543C6.64364 19.9378 6.61457 19.9242 6.59326 19.9141L6.56713 19.9015L6.55847 19.8973L6.55526 19.8957L6.55393 19.895C6.55365 19.8949 6.55279 19.8944 7 19ZM15.9739 18.3392C15.8815 17.1528 15.5436 15.8856 14.9516 14.8837C14.2615 13.7159 13.2963 13 12 13C10.7037 13 9.73851 13.7159 9.04843 14.8837C8.45643 15.8856 8.11851 17.1528 8.02613 18.3392C8.19918 18.4008 8.40815 18.4695 8.64972 18.5385C9.4537 18.7682 10.6102 19 12 19C13.3898 19 14.5463 18.7682 15.3503 18.5385C15.5918 18.4695 15.8008 18.4008 15.9739 18.3392Z" fill="black"/>
<path fill-rule="evenodd" clip-rule="evenodd" d="M18.5 8C17.9477 8 17.5 8.44772 17.5 9C17.5 10.0252 17.4854 10.7932 17.1056 11.5528C16.8586 12.0468 17.0589 12.6474 17.5528 12.8944C19.1671 13.7016 20 15.3233 20 17C20 17.5523 20.4477 18 21 18C21.5523 18 22 17.5523 22 17C22 14.9492 21.0906 12.8555 19.2364 11.5722C19.5005 10.666 19.5003 9.79675 19.5 9.06575C19.5 9.04371 19.5 9.02179 19.5 9C19.5 8.44772 19.0523 8 18.5 8Z" fill="black"/>
<path fill-rule="evenodd" clip-rule="evenodd" d="M5.5 8C6.05228 8 6.5 8.44772 6.5 9C6.5 10.0252 6.5146 10.7932 6.89439 11.5528C7.14135 12.0468 6.94113 12.6474 6.44717 12.8944C4.83292 13.7016 4 15.3233 4 17C4 17.5523 3.55228 18 3 18C2.44772 18 2 17.5523 2 17C2 14.9492 2.90938 12.8555 4.76355 11.5722C4.49945 10.666 4.49974 9.79675 4.49999 9.06575C4.49999 9.04371 4.5 9.02179 4.5 9C4.5 8.44772 4.94772 8 5.5 8Z" fill="black"/>
<path fill-rule="evenodd" clip-rule="evenodd" d="M12 6C10.8954 6 10 6.89543 10 8C10 9.10457 10.8954 10 12 10C13.1046 10 14 9.10457 14 8C14 6.89543 13.1046 6 12 6ZM8 8C8 5.79086 9.79086 4 12 4C14.2091 4 16 5.79086 16 8C16 10.2091 14.2091 12 12 12C9.79086 12 8 10.2091 8 8Z" fill="black"/>
</svg>
