<svg width="24" height="24" viewBox="0 0 24 24" fill="none" xmlns="http://www.w3.org/2000/svg">
<path fill-rule="evenodd" clip-rule="evenodd" d="M3 5.2C3 3.98497 3.98497 3 5.2 3H8.8C10.015 3 11 3.98497 11 5.2V8.8C11 10.015 10.015 11 8.8 11H5.2C3.98497 11 3 10.015 3 8.8V5.2ZM5.2 5C5.08954 5 5 5.08954 5 5.2V8.8C5 8.91046 5.08954 9 5.2 9H8.8C8.91046 9 9 8.91046 9 8.8V5.2C9 5.08954 8.91046 5 8.8 5H5.2Z" fill="black"/>
<path fill-rule="evenodd" clip-rule="evenodd" d="M3 15.2C3 13.985 3.98497 13 5.2 13H8.8C10.015 13 11 13.985 11 15.2V18.8C11 20.015 10.015 21 8.8 21H5.2C3.98497 21 3 20.015 3 18.8V15.2ZM5.2 15C5.08954 15 5 15.0895 5 15.2V18.8C5 18.9105 5.08954 19 5.2 19H8.8C8.91046 19 9 18.9105 9 18.8V15.2C9 15.0895 8.91046 15 8.8 15H5.2Z" fill="black"/>
<path fill-rule="evenodd" clip-rule="evenodd" d="M13 5.2C13 3.98497 13.985 3 15.2 3H18.8C20.015 3 21 3.98497 21 5.2V8.8C21 10.015 20.015 11 18.8 11H15.2C13.985 11 13 10.015 13 8.8V5.2ZM15.2 5C15.0895 5 15 5.08954 15 5.2V8.8C15 8.91046 15.0895 9 15.2 9H18.8C18.9105 9 19 8.91046 19 8.8V5.2C19 5.08954 18.9105 5 18.8 5H15.2Z" fill="black"/>
<path fill-rule="evenodd" clip-rule="evenodd" d="M13 15.2C13 13.985 13.985 13 15.2 13H18.8C20.015 13 21 13.985 21 15.2V18.8C21 20.015 20.015 21 18.8 21H15.2C13.985 21 13 20.015 13 18.8V15.2ZM15.2 15C15.0895 15 15 15.0895 15 15.2V18.8C15 18.9105 15.0895 19 15.2 19H18.8C18.9105 19 19 18.9105 19 18.8V15.2C19 15.0895 18.9105 15 18.8 15H15.2Z" fill="black"/>
</svg>
